Coordinates
version=1
nRows=13
nColumns=34
inDegrees=yes

Units are S.I. units (second, meters, Newtons, ...)
Angles are in degrees.

endheader
time	pelvis_tilt	pelvis_list	pelvis_rotation	pelvis_tx	pelvis_ty	pelvis_tz	hip_flexion_r	hip_adduction_r	hip_rotation_r	knee_angle_r	ankle_angle_r	subtalar_angle_r	mtp_angle_r	hip_flexion_l	hip_adduction_l	hip_rotation_l	knee_angle_l	socket_flexion	socket_adduction	socket_rotation	socket_tx	socket_ty	socket_tz	pros_ankle_rx	pros_ankle_ry	pros_ankle_rz	pros_ankle_tx	pros_ankle_ty	pros_ankle_tz	foot_flex	lumbar_extension	lumbar_bending	lumbar_rotation
      0.59583333	     -2.92296200	     -3.81678555	     14.76319402	      0.00875700	      1.01941827	      0.35727645	     24.18687020	     -1.30414132	    -15.21647226	      1.05439339	     11.79486235	      3.71545000	      7.79957624	     -7.55715165	     -6.58768058	      9.55937831	      6.66788422	     40.97270888	      0.00000000	      0.00000000	      0.00000000	      0.01449092	      0.00000000	      0.00000000	      0.00000000	      0.00000000	      0.00000000	      0.00000000	      0.00000000	     30.02986905	    -10.03201924	     -1.75279570	    -34.80906238
      0.60000000	     -2.90422599	     -3.85431280	     14.95823118	      0.01486058	      1.01836362	      0.35731821	     24.23960487	     -1.30142333	    -15.02868495	      0.83335169	     11.57180177	      3.77194369	      7.83054172	     -7.73530539	     -6.75241637	      9.67476344	      6.47114857	     41.08300629	      0.00000000	      0.00000000	      0.00000000	      0.01473859	      0.00000000	      0.00000000	      0.00000000	      0.00000000	      0.00000000	      0.00000000	      0.00000000	     30.11490451	     -9.97557402	     -1.66355269	    -34.85502501
      0.60416667	     -2.86128755	     -3.91274909	     15.13844938	      0.02094568	      1.01737610	      0.35738904	     24.30866805	     -1.27542572	    -14.84322660	      0.50609993	     11.21104627	      3.82742016	      7.86346825	     -7.89291294	     -6.93961626	      9.77505923	      6.22422745	     41.22458708	      0.00000000	      0.00000000	      0.00000000	      0.01508613	      0.00000000	      0.00000000	      0.00000000	      0.00000000	      0.00000000	      0.00000000	      0.00000000	     30.20970780	     -9.94918535	     -1.50278611	    -34.92053126
      0.60833333	     -3.09318950	     -4.04949301	     15.35777497	      0.02690900	      1.01588895	      0.35733477	     24.94793290	     -1.36172596	    -15.06456076	     -0.27361620	     10.23947260	      3.77558440	     10.83896342	     -7.63922541	     -7.12007307	      9.89146177	      6.07245300	     41.75947289	      0.00000000	      0.00000000	      0.00000000	      0.01583747	      0.00000000	      0.00000000	      0.00000000	      0.00000000	      0.00000000	      0.00000000	      0.00000000	     30.50972369	     -9.76263236	     -1.20401964	    -35.25920797
      0.61250000	     -3.00396972	     -4.15174698	     15.48990031	      0.03303509	      1.01502535	      0.35746725	     25.03668169	     -1.27603266	    -14.94449110	     -0.78514444	      9.69027570	      3.83662177	     10.87177695	     -7.81640845	     -7.35517885	      9.90308275	      5.80523461	     41.94200896	      0.00000000	      0.00000000	      0.00000000	      0.01619669	      0.00000000	      0.00000000	      0.00000000	      0.00000000	      0.00000000	      0.00000000	      0.00000000	     30.59708674	     -9.85600442	     -0.94921101	    -35.27751271
      0.61666667	     -2.90350718	     -4.26129925	     15.62363949	      0.03918057	      1.01421295	      0.35761253	     25.11950296	     -1.17973640	    -14.81656657	     -1.35262529	      9.12795935	      3.87441040	     10.90639516	     -7.97611948	     -7.59592424	      9.93606607	      5.50132420	     42.13329018	      0.00000000	      0.00000000	      0.00000000	      0.01664678	      0.00000000	      0.00000000	      0.00000000	      0.00000000	      0.00000000	      0.00000000	      0.00000000	     30.70082523	     -9.89760308	     -0.67567573	    -35.30128897
      0.62083333	     -2.80745789	     -4.41582677	     15.73467346	      0.04530538	      1.01342081	      0.35780438	     25.28041012	     -1.04930028	    -14.80470098	     -2.05721396	      8.44585727	      3.85217573	     10.98869867	     -8.07275023	     -7.87581774	      9.89138685	      5.14603769	     42.38302846	      0.00000000	      0.00000000	      0.00000000	      0.01708681	      0.00000000	      0.00000000	      0.00000000	      0.00000000	      0.00000000	      0.00000000	      0.00000000	     30.75704488	    -10.00791239	     -0.35900943	    -35.31168967
      0.62500000	     -2.96875269	     -4.56014416	     15.80810807	      0.05139359	      1.01218252	      0.35803663	     26.11980284	     -1.14430536	    -15.24237816	     -3.55441394	      7.97416537	      4.51650962	     13.69917020	     -7.84013619	     -8.05223635	      9.89618410	      4.96530964	     43.07104972	      0.00000000	      0.00000000	      0.00000000	      0.01820661	      0.00000000	      0.00000000	      0.00000000	      0.00000000	      0.00000000	      0.00000000	      0.00000000	     30.96501345	     -9.76578114	     -0.16135180	    -35.23816795
      0.62916667	     -2.81523500	     -4.72981545	     15.88647719	      0.05757410	      1.01158170	      0.35827979	     26.19619813	     -0.96508185	    -15.20153770	     -4.27728666	      7.27369029	      4.51101695	     13.68905464	     -7.95549921	     -8.34995819	      9.83695301	      4.56094581	     43.35652332	      0.00000000	      0.00000000	      0.00000000	      0.01880407	      0.00000000	      0.00000000	      0.00000000	      0.00000000	      0.00000000	      0.00000000	      0.00000000	     31.00417698	     -9.89837020	      0.19882658	    -35.25382147
      0.63333333	     -2.65874392	     -4.92655078	     15.96265352	      0.06377450	      1.01103165	      0.35853885	     26.30680626	     -0.76903526	    -15.19569582	     -5.09299156	      6.59655848	      4.46436160	     13.70218254	     -8.03704576	     -8.67259878	      9.77797751	      4.12367229	     43.66353323	      0.00000000	      0.00000000	      0.00000000	      0.01943589	      0.00000000	      0.00000000	      0.00000000	      0.00000000	      0.00000000	      0.00000000	      0.00000000	     31.03934268	    -10.01801613	      0.56540962	    -35.22567107
      0.63750000	     -2.52834598	     -5.14479801	     16.00773207	      0.06997072	      1.01048433	      0.35885656	     26.51874281	     -0.57159912	    -15.32921280	     -6.06004399	      5.97901323	      4.36394016	     13.80322521	     -8.04091484	     -8.99956987	      9.67072026	      3.64432266	     44.04154517	      0.00000000	      0.00000000	      0.00000000	      0.02011321	      0.00000000	      0.00000000	      0.00000000	      0.00000000	      0.00000000	      0.00000000	      0.00000000	     30.99708881	    -10.14450489	      0.94520205	    -35.10720802
      0.64166667	     -2.63180741	     -5.30696459	     15.99486354	      0.07611866	      1.00950671	      0.35922320	     27.42369989	     -0.69565613	    -15.97718440	     -7.95140380	      5.83576095	      5.52130937	     15.58335438	     -7.75810494	     -9.17438843	      9.62350365	      3.30960202	     44.79118758	      0.00000000	      0.00000000	      0.00000000	      0.02159602	      0.00000000	      0.00000000	      0.00000000	      0.00000000	      0.00000000	      0.00000000	      0.00000000	     31.17462589	     -9.92792450	      1.14446403	    -34.98662059
      0.64583333	     -2.44866746	     -5.54661126	     16.00772863	      0.08228710	      1.00915385	      0.35956736	     27.51610014	     -0.43322178	    -15.97168775	     -8.81962846	      5.21518654	      5.42631751	     15.55650874	     -7.75245587	     -9.51555914	      9.50548222	      2.75188786	     45.21042769	      0.00000000	      0.00000000	      0.00000000	      0.02239559	      0.00000000	      0.00000000	      0.00000000	      0.00000000	      0.00000000	      0.00000000	      0.00000000	     31.09146721	    -10.10744266	      1.61577580	    -34.93540437
